<?xml version="1.0" encoding="UTF-8" standalone="no"?>
<svg
   width="2316"
   height="3162"
   viewBox="-122 -131 1158 1581"
   version="1.1"
   id="svg160"
   sodipodi:docname="A_size_illustration2.svg"
   inkscape:version="1.1.2 (0a00cf5339, 2022-02-04)"
   xmlns:inkscape="http://www.inkscape.org/namespaces/inkscape"
   xmlns:sodipodi="http://sodipodi.sourceforge.net/DTD/sodipodi-0.dtd"
   xmlns:xlink="http://www.w3.org/1999/xlink"
   xmlns="http://www.w3.org/2000/svg"
   xmlns:svg="http://www.w3.org/2000/svg">
  <sodipodi:namedview
     id="namedview162"
     pagecolor="#ffffff"
     bordercolor="#666666"
     borderopacity="1.0"
     inkscape:pageshadow="2"
     inkscape:pageopacity="1"
     inkscape:pagecheckerboard="true"
     showgrid="false"
     inkscape:zoom="0.094370354"
     inkscape:cx="2394.8199"
     inkscape:cy="3491.5626"
     inkscape:window-width="1920"
     inkscape:window-height="1003"
     inkscape:window-x="0"
     inkscape:window-y="40"
     inkscape:window-maximized="1"
     inkscape:current-layer="svg160"
     inkscape:snap-bbox="true"
     inkscape:snap-page="true" />
  <defs
     id="defs6">
    <path
       id="arrowleft"
       d="M0,0L18-5V5z" />
    <use
       id="arrowright"
       xlink:href="#arrowleft"
       transform="rotate(180)" />
    <use
       id="arrowup"
       xlink:href="#arrowleft"
       transform="rotate(90)" />
    <use
       id="arrowdown"
       xlink:href="#arrowleft"
       transform="rotate(270)" />
  </defs>
  <rect
     style="opacity:1;fill:#ffffff;fill-opacity:1;stroke:#000000;stroke-width:0;stroke-linejoin:round;stroke-miterlimit:4;stroke-dasharray:none;stroke-opacity:0"
     id="rect1730"
     width="1158"
     height="1581"
     x="-122"
     y="-131" />
  <g
     stroke="#000"
     stroke-width="1"
     id="g26">
    <rect
       x="0"
       y="0"
       width="1000"
       height="1414"
       fill="#818181"
       id="rect8" />
    <rect
       x="0"
       y="707"
       width="1000"
       height="707"
       fill="#fff"
       id="rect10" />
    <rect
       x="500"
       y="0"
       width="500"
       height="707"
       fill="#e9f1f5"
       id="rect12" />
    <rect
       x="0"
       y="353.5"
       width="500"
       height="353.5"
       fill="#dbe7ee"
       id="rect14" />
    <rect
       x="250"
       y="0"
       width="250"
       height="353.5"
       fill="#c9dbe5"
       id="rect16" />
    <rect
       x="0"
       y="176.75"
       width="250"
       height="176.75"
       fill="#b7cfdc"
       id="rect18" />
    <rect
       x="125"
       y="0"
       width="125"
       height="176.75"
       fill="#a5c3d4"
       id="rect20" />
    <rect
       x="0"
       y="88.375"
       width="125"
       height="88.375"
       fill="#92b7cb"
       id="rect22" />
    <rect
       x="62.5"
       y="0"
       width="62.5"
       height="88.375"
       fill="#7ca8c0"
       id="rect24" />
  </g>
  <g
     font-family="Bitstream Vera Sans"
     text-anchor="middle"
     id="g46">
    <text
       x="500"
       y="833"
       font-size="350"
       fill="#fff"
       stroke="#000"
       stroke-width="4.5"
       id="text28">A0</text>
    <text
       x="508"
       y="1135"
       font-size="210"
       id="text30">A1</text>
    <text
       x="756"
       y="413"
       font-size="164"
       id="text32">A2</text>
    <text
       x="253"
       y="575"
       font-size="128"
       id="text34">A3</text>
    <text
       x="376"
       y="213"
       font-size="100"
       id="text36">A4</text>
    <text
       x="127"
       y="294"
       font-size="78"
       id="text38">A5</text>
    <text
       x="189"
       y="110"
       font-size="61"
       id="text40">A6</text>
    <text
       x="65"
       y="151"
       font-size="48"
       id="text42">A7</text>
    <text
       x="96"
       y="58"
       font-size="37"
       id="text44">A8</text>
  </g>
  <g
     fill="none"
     stroke="#000"
     stroke-width="1"
     id="g72">
    <path
       d="m0,0 0,-100"
       id="path48" />
    <path
       d="m1000,0 0,-100"
       id="path50" />
    <path
       d="m62.5,0 0,-40"
       id="path52" />
    <path
       d="m125,0 0,-40"
       id="path54" />
    <path
       d="m250,0 0,-40"
       id="path56" />
    <path
       d="m500,0 0,-40"
       id="path58" />
    <path
       d="m0,0 -100,0"
       id="path60" />
    <path
       d="m0,1414 -100,0"
       id="path62" />
    <path
       d="m0,88.375 -40,0"
       id="path64" />
    <path
       d="m0,176.75 -40,0"
       id="path66" />
    <path
       d="m0,353.5 -40,0"
       id="path68" />
    <path
       d="m0,707 -40,0"
       id="path70" />
  </g>
  <use
     xlink:href="#arrowleft"
     x="0"
     y="-88"
     id="use74" />
  <use
     xlink:href="#arrowright"
     x="1000"
     y="-88"
     id="use76" />
  <use
     xlink:href="#arrowleft"
     x="62.5"
     y="-28"
     id="use78" />
  <use
     xlink:href="#arrowright"
     x="125"
     y="-28"
     id="use80" />
  <use
     xlink:href="#arrowleft"
     x="125"
     y="-28"
     id="use82" />
  <use
     xlink:href="#arrowright"
     x="250"
     y="-28"
     id="use84" />
  <use
     xlink:href="#arrowleft"
     x="250"
     y="-28"
     id="use86" />
  <use
     xlink:href="#arrowright"
     x="500"
     y="-28"
     id="use88" />
  <use
     xlink:href="#arrowleft"
     x="500"
     y="-28"
     id="use90" />
  <use
     xlink:href="#arrowright"
     x="1000"
     y="-28"
     id="use92" />
  <use
     xlink:href="#arrowup"
     x="-88"
     y="0"
     id="use94" />
  <use
     xlink:href="#arrowdown"
     x="-88"
     y="1414"
     id="use96" />
  <use
     xlink:href="#arrowup"
     x="-28"
     y="88.375"
     id="use98" />
  <use
     xlink:href="#arrowdown"
     x="-28"
     y="176.75"
     id="use100" />
  <use
     xlink:href="#arrowup"
     x="-28"
     y="176.75"
     id="use102" />
  <use
     xlink:href="#arrowdown"
     x="-28"
     y="353.5"
     id="use104" />
  <use
     xlink:href="#arrowup"
     x="-28"
     y="353.5"
     id="use106" />
  <use
     xlink:href="#arrowdown"
     x="-28"
     y="707"
     id="use108" />
  <use
     xlink:href="#arrowup"
     x="-28"
     y="707"
     id="use110" />
  <use
     xlink:href="#arrowdown"
     x="-28"
     y="1414"
     id="use112" />
  <g
     fill="none"
     stroke="#000"
     stroke-width="3"
     id="g134">
    <path
       d="M17,-88 420,-88M580,-88 983,-88"
       id="path114" />
    <path
       d="M79.5,-28 108,-28"
       id="path116" />
    <path
       d="M142,-28 233,-28"
       id="path118" />
    <path
       d="M267,-28 310,-28M440,-28 483,-28"
       id="path120" />
    <path
       d="M517,-28 687,-28M813,-28 983,-28"
       id="path122" />
    <path
       d="M-88,17 -88,624M-88,790 -88,1397"
       id="path124" />
    <path
       d="M-28,105.375 -28,159.75"
       id="path126" />
    <path
       d="M-28,193.75 -28,204.75M-28,325.5 -28,336.5"
       id="path128" />
    <path
       d="M-28,370.5 -28,463.5M-28,597 -28,690"
       id="path130" />
    <path
       d="M-28,724 -28,992M-28,1129 -28,1397"
       id="path132" />
  </g>
  <g
     font-family="Bitstream Vera Sans"
     text-anchor="middle"
     id="g146">
    <text
       x="500"
       y="-77"
       font-size="22"
       id="text136">841 mm</text>
    <text
       x="750"
       y="-17"
       font-size="22"
       id="text138">420 mm</text>
    <text
       x="375"
       y="-17"
       font-size="22"
       id="text140">210 mm</text>
    <text
       x="187.5"
       y="-45"
       font-size="22"
       id="text142">105 mm</text>
    <text
       x="93.75"
       y="-45"
       font-size="22"
       id="text144">52 mm</text>
  </g>
  <g
     font-family="Bitstream Vera Sans"
     text-anchor="middle"
     transform="rotate(-90)"
     id="g158">
    <text
       x="-707"
       y="-77"
       font-size="22"
       id="text148">1189 mm</text>
    <text
       x="-1060.5"
       y="-17"
       font-size="22"
       id="text150">594 mm</text>
    <text
       x="-530.25"
       y="-17"
       font-size="22"
       id="text152">297 mm</text>
    <text
       x="-265.125"
       y="-17"
       font-size="22"
       id="text154">148 mm</text>
    <text
       x="-132.5625"
       y="-45"
       font-size="22"
       id="text156">74 mm</text>
  </g>
</svg>
